<svg xmlns="http://www.w3.org/2000/svg" xmlns:xlink="http://www.w3.org/1999/xlink" width="100" height="100" viewBox="0 0 100 100"><g><svg viewBox="0 0 99.999997 99.999997"><g transform="translate(-149.6453,-589.21878)"><path d="m 199.64552,591.21879 a 48.000099,48.000099 0 0 0 -48.00022,48.00022 48.000099,48.000099 0 0 0 48.00022,47.99977 48.000099,48.000099 0 0 0 47.99977,-47.99977 48.000099,48.000099 0 0 0 -47.99977,-48.00022 z m 0,5.42088 a 42.107528,42.578935 0 0 1 42.10718,42.57934 42.107528,42.578935 0 0 1 -42.10718,42.57887 42.107528,42.578935 0 0 1 -42.10763,-42.57887 42.107528,42.578935 0 0 1 42.10763,-42.57934 z" fill="#f5f5f5"></path></g></svg><g transform="translate(50 50) scale(0.69 0.69) rotate(0) translate(-50 -50)" style="fill:#008000"><svg fill="#008000" xmlns="http://www.w3.org/2000/svg" xmlns:xlink="http://www.w3.org/1999/xlink" version="1.1" x="0px" y="0px" viewBox="0 0 100 95.078" enable-background="new 0 0 100 95.078" xml:space="preserve"><g><path d="M99.976,1.14c-0.042-0.543-0.434-0.994-0.966-1.111c-0.53-0.117-1.075,0.127-1.343,0.602   c-0.037,0.069-3.885,6.774-11.529,6.774c-1.61,0-3.306-0.298-5.037-0.886c-3.066-1.043-5.841-1.572-8.246-1.572   c-7.414,0-9.439,4.883-9.884,6.379c-0.113,0.385-0.183,0.833-0.231,1.304c-0.36-0.163-0.761-0.254-1.183-0.233   c-8.017,0.573-13.715,6.017-16.514,15.755c-0.302-0.467-0.63-0.923-0.988-1.365c-2.775-3.425-6.733-5.359-11.764-5.746   c-0.065-0.005-0.127,0.004-0.192,0.004c0.008-1.023-0.145-1.947-0.42-2.666c-0.434-1.131-2.276-4.822-7.79-4.822   c-2.258,0-4.882,0.634-7.797,1.885c-1.659,0.71-3.293,1.07-4.858,1.07c-5.662,0-8.941-4.761-8.972-4.807   c-0.302-0.453-0.865-0.656-1.385-0.497C0.356,11.366,0,11.846,0,12.39c0,0.158,0.171,15.844,14.94,18.798   c1.709,0.341,3.335,0.515,4.834,0.515c5.909,0,8.948-2.615,10.457-4.81c0.272-0.396,0.508-0.802,0.716-1.21   c0.291,0.154,0.615,0.254,0.964,0.281c3.666,0.282,6.378,1.562,8.291,3.914c2.191,2.693,2.898,6.301,3.086,9.04   c-0.048,0.815-0.073,1.533-0.084,2.155c-3.313,0.904-7.896,2.796-10.201,6.625c-9.659,16.052-4.992,29.886-4.769,30.522   c0.198,2.012,0.551,4.023,1.105,6.031c2.471,8.947,6.974,10.826,10.316,10.826c5.26,0,9.954-4.692,11.12-5.954   c2.402-1.649,18.185-13.217,16.803-31.309c-1.179-15.496-9.373-19.59-13.54-19.59c-1.85,0-3.776,0.553-5.762,1.604   c-0.008-0.291-0.02-0.592-0.038-0.906c0.454-7.121,2.752-20.82,13.67-21.6c0.479-0.035,0.912-0.209,1.274-0.474   c0.393,1.329,1.029,2.694,1.979,3.967c1.754,2.351,5.153,5.155,11.388,5.156c0.002,0,0.002,0,0.003,0   c2.26,0,4.749-0.378,7.401-1.125C101.227,19.982,99.99,1.328,99.976,1.14z M28.196,25.495c-2.271,3.3-6.789,4.467-12.771,3.272   C6.648,27.012,3.817,20.193,2.903,15.92c1.864,1.513,4.666,3.061,8.331,3.061c1.9,0,3.862-0.428,5.83-1.271   c2.607-1.118,4.903-1.685,6.825-1.685c3.831,0,5.11,2.263,5.483,3.235C29.802,20.385,29.864,23.07,28.196,25.495z M54.039,43.164   c5.153,0,8.141,8.788,8.616,15.028c1.094,14.325-11.213,24.316-14.205,26.521c0.441-0.747,0.739-1.273,0.777-1.342   c0.334-0.595,0.124-1.348-0.471-1.682c-0.596-0.339-1.347-0.124-1.681,0.471c-0.862,1.53-3.391,5.796-4.736,7.141   c-0.052,0.052-0.076,0.118-0.117,0.177c-0.858,0.397-1.736,0.662-2.566,0.662c-2.367,0-4.236-2.424-5.556-7.202   c-3.194-11.567,0.355-22.976,10.55-33.908C48.228,45.191,51.476,43.164,54.039,43.164z M83.286,22.469   c-2.435,0.686-4.698,1.033-6.732,1.033c-0.001,0-0.001,0-0.003,0c-5.21,0-7.992-2.265-9.408-4.164   c-1.847-2.475-2.308-5.614-1.804-7.31c0.411-1.387,1.967-4.613,7.516-4.613c2.134,0,4.641,0.485,7.45,1.441   c1.988,0.675,3.95,1.018,5.833,1.018c5.335,0,9.063-2.663,11.268-4.925C96.856,10.135,94.299,19.368,83.286,22.469z"></path><path d="M55.723,68.571c-0.338,0.593-0.133,1.346,0.459,1.685c0.193,0.111,0.404,0.163,0.611,0.163c0.43,0,0.846-0.224,1.073-0.622   c5.191-9.087-0.735-22.4-0.991-22.963c-0.281-0.622-1.016-0.897-1.633-0.615c-0.622,0.282-0.896,1.014-0.614,1.635   C54.685,47.979,60.294,60.569,55.723,68.571z"></path><path d="M80.888,12.566c-6.731-4.039-13.34-0.167-13.617,0c-0.583,0.35-0.771,1.106-0.424,1.69c0.35,0.585,1.105,0.776,1.692,0.429   c0.227-0.135,5.636-3.27,11.078-0.002c0.199,0.12,0.417,0.176,0.634,0.176c0.42,0,0.829-0.213,1.061-0.599   C81.662,13.675,81.473,12.917,80.888,12.566z"></path><path d="M26.562,20.385c-5.509-3.306-10.919-0.138-11.147,0c-0.584,0.351-0.774,1.109-0.423,1.694   c0.35,0.585,1.109,0.774,1.693,0.423c0.044-0.024,4.351-2.551,8.607,0c0.198,0.119,0.418,0.176,0.634,0.176   c0.419,0,0.828-0.213,1.06-0.599C27.337,21.494,27.147,20.736,26.562,20.385z"></path></g></svg></g></g></svg>