<?xml version="1.0" encoding="utf-8"?>
<!-- Generator: Adobe Illustrator 23.0.1, SVG Export Plug-In . SVG Version: 6.00 Build 0)  -->
<svg version="1.1" id="Layer_1" xmlns="http://www.w3.org/2000/svg" xmlns:xlink="http://www.w3.org/1999/xlink" x="0px" y="0px"
	 viewBox="0 0 1080 381" style="enable-background:new 0 0 1080 381;" xml:space="preserve">
<style type="text/css">
	.st0{fill:#FFFFFF;}
</style>
<g>
	<path class="st0" d="M246.2,222.7c0,49.2-51,87.8-103.3,87.8c-31,0-45.8-15.5-45.8-31.3c0-33.7,49.9-49.6,106.7-49.6
		c3.8,0,7.6,1.4,7.6,3.4s-2.7,3.8-7.6,3.8c-50.6,0-94.7,14.8-94.7,41.7c0,10.7,10.7,21.7,34.1,21.7c45.8,0,90.9-35.8,90.9-77.5
		c0-33.4-38.2-44.8-45.4-44.8c-5.5,0-17.6,4.1-25.8,4.1c-9.6,0-13.8-3.8-13.8-8.6c0-4.8,5.5-8.6,13.8-8.6c5.8,0,16.2,2.4,20.3,2.4
		c28.6,0,114.3-35.8,114.3-94.3c0-36.5-29.6-62.3-99.8-62.3c-97.4,0-183.5,52-183.5,100.5c0,22.4,13.4,33.4,32.7,33.4
		c12.7,0,21-5.5,23.4-5.5c1.7,0,2.4,1.4,2.4,2.4c0,2.8-12.4,11.4-29.3,11.4c-21.4,0-41.3-12.7-41.3-40.3C2.1,55.1,93.3,0,197.6,0
		c77.8,0,112.9,28.9,112.9,72.6c0,62.3-87.4,97.1-104.3,100.2C206.2,172.8,246.2,184.9,246.2,222.7z M208.3,58.9
		c4.1-2.1,5.9-3.8,5.9-6.5c0-2.1-1.7-5.2-5.5-5.2c-21.4,0-132.2,115.7-132.2,179.7c0,4.8,4.5,7.9,7.6,7.9c1.7,0,4.1-1,4.1-3.1
		C88.1,171.4,174.6,76.4,208.3,58.9z M984.6,75.7c6.5,0,29.6-20.7,29.6-37.9c0-5.5-2.1-10.3-8.3-10.3c-8.3,0-10.7,7.2-10.7,17.6
		c0,20.7-13.4,25.1-13.4,27.9C981.9,74.4,982.9,75.7,984.6,75.7z M1077.9,186.9c0,1.4-1.7,3.4-1.7,3.4c-15.1,17.2-32,24.8-47.5,28.2
		c-5.2,15.1-20.3,24.8-35.5,24.8c-13.1,0-21.4-7.9-21.4-15.2c0-9.6,7.6-13.8,18.2-13.8c9.6,0,19.3,0,29.3-1.7
		c0.3-1.7,0.7-3.8,0.7-5.9c0-18.2-11.4-28.9-12-43.7c0,0-6.5,10.6-19.5,25.5c-0.5,0.9-1.1,1.7-1.1,1.7c-16.2,18.6-39.3,34.1-64,48.5
		c-20.7,60.9-56.8,141.8-116,141.8c-21.7,0-36.5-13.8-36.5-32.7c0-48.2,77.1-77.8,141.8-113.3c4.1-11.7,7.6-23.1,10.3-32.7
		c-19.3,19.3-40.6,33.4-57.8,33.4c-12.7,0-21.7-7.9-21.7-21c0-2.4,0.5-5.2,1.2-8.1c-11.8,9.4-27.9,19.5-42.9,19.5
		c-11.4,0-19.3-6.9-19.3-16.9c0-20.7,33.1-42.3,33.1-57.5c0-1.7-1.4-4.5-5.5-4.5c-22,0-66.4,35.1-102.6,77.5
		c-2.4,3.1-4.1,4.1-7.6,4.1c-2.4,0-5.5-2.1-5.5-5.2c0-1.7,1.7-5.5,4.4-10.9c-8.7,6-16.5,9.1-23.4,9.1c-13.4,0-23.1-11.7-23.1-27.2
		c-13.4,15.5-38.9,38.9-56.5,38.9c-10.3,0-17.9-6.2-17.9-17.9c0-2.8,0.5-5.7,1.1-8.7c-11.6,9.3-27.1,19-41.4,19
		c-10.3,0-17.6-5.9-17.6-15.8c0-21.7,32.4-42.3,32.4-55.8c0-3.4-2.4-3.8-3.4-3.8c-15.1,0-75.1,46.8-103.3,77.1
		c-3.5,3.8-4.8,6.2-10,6.2c-3.1,0-5.9-2.8-5.9-5.9c0-1.6,3.4-9.6,8.4-20.4c-11.6,9.1-27,18.3-41.5,18.3c-11,0-19.6-7.2-19.6-19.3
		c0-1.5,0.2-3.1,0.4-4.7c-14.4,13-40.3,32.2-66.8,32.2c-18.6,0-33.7-11-33.7-30.6c0-32,43-66.8,69.5-66.8c10.7,0,17.9,6.2,17.9,14.8
		c0,20.7-46.1,39.6-74.7,46.8c-0.7,2.1-0.7,4.1-0.7,6.2c0,12.1,8.9,19.6,21.7,19.6c32.3,0,58.7-23.7,68.6-34.1
		c4.8-20.9,17.5-44.2,31.6-65c-6.9-0.7-13.4-1.4-18.6-1.4c-10.3,0-12.4,3.4-14.8,3.4c-1.7,0-3.8-1-3.8-3.4c0-3.4,6.2-8.9,20.3-8.9
		c6.5,0,14.5,0.7,22.7,1.7c17.6-24.4,35.1-44.1,40.3-49.9c2.1-2.4,3.8-3.4,5.2-3.4c3.8,0,5.8,4.1,5.8,6.2c0,1.7-1,2.4-3.8,5.9
		c-4.5,5.2-19.6,22-35.5,43c13.1,2.1,25.1,3.8,33.1,3.8c4.1,0,4.8,1.4,4.8,2.8c0,2.4-4.1,5.9-7.2,5.9c-8.9,0-23.1-2.1-36.8-3.8
		c-17.2,24.4-32.7,54.1-32.7,79.2c0,7.6,5.2,10,10,10c17.8,0,37.5-16.7,46.6-25.5c4.3-8.8,8.9-18,13.3-26.5
		C493,100.5,534,42.3,569.1,42.3c11.4,0,18.2,7.6,18.2,16.9c0,30-80.2,91.9-123.9,126c-6.5,9.3-15.5,27.9-15.5,27.9
		c26.2-27.2,84-73.3,102.9-73.3c8.3,0,13.8,5.5,13.8,14.5c0,17.9-32.4,39.6-32.4,55.4c0,4.1,1.7,6.5,7.9,6.5
		c16.8,0,34.7-14.6,44.2-23.7c14.5-28.6,51-57.2,80.7-57.2c17.2,0,24.1,9,24.1,17.6c0,6.9-4.8,11.7-7.2,11.7c-1.4,0-2.8-1-2.8-2.8
		c0-2.4,1-3.8,1-7.2c0-3.1-1.7-10-12-10c-36.5,0-78.5,43.7-78.5,70.9c0,4.8,2.4,7.9,7.2,7.9c14.5,0,37.5-21.3,48.9-35.1
		c9.3-11,15.2-21,18.9-21c2.7,0,5.5,2.8,5.5,5.5c0,2.4-6.9,10.7-6.9,22.4c0,12.4,6.2,17.6,13.8,17.6c8.3,0,18.6-5.4,32.2-18.8
		c13.9-22.5,36.8-53.9,41.8-53.9c4.5,0,5.9,3.8,5.9,5.5c0,1-1,2.4-3.4,5.2c-12.4,14.1-23.4,28.6-36.5,49.6
		c27.9-30.3,70.9-63.7,95-63.7c8.9,0,15.8,6.5,15.8,14.8c0,18.9-32.4,40.6-32.4,56.5c0,5.2,3.1,7.9,9.3,7.9
		c18.1,0,35.6-14.3,44.8-23.4c12-26.5,37.6-59.2,42.6-59.2c3.4,0,5.8,4.1,5.8,5.8c0,0.7-0.7,1.7-2.4,3.8
		c-11.4,14.1-39.3,51.6-39.3,71.6c0,6.2,3.1,10.7,10.7,10.7c16.2,0,35.1-12.4,55.8-36.2c9.6-11,17.2-24.8,24.1-37.2
		c1.7-3.1,2.7-4.8,5.5-4.8c3.1,0,5.2,2.8,5.2,5.2c0,1-1,3.1-2.1,4.8c-6.2,12.1-13.4,22-21,46.8c-2.1,6.9-4.5,14.8-7.2,22.7
		c21.1-12,39.8-25.1,53.2-40.1c0.4-0.7,0.9-1.2,0.9-1.2c13.1-14.5,23.4-30.6,29.6-41.7c5.9-10.7,11.7-19.3,15.8-19.3
		c3.8,0,6.9,4.5,6.9,6.9c0,3.8-14.8,15.1-14.8,28.2c0,15.5,11.7,25.1,11.7,47.9c0,1.4,0,2.4-0.3,3.4c14.1-3.8,27.9-11,40.3-25.5
		c0,0,1.7-2.1,3.1-2.1C1075.9,183.2,1077.9,185.2,1077.9,186.9z M469.6,169C505.1,141.2,577,83.3,577,58.2c0-3.4-2.1-6.2-7.2-6.2
		C544.3,52,503.7,103.3,469.6,169z M293,188.3c26.2-6.9,61.3-23.4,61.3-37.9c0-1-1-4.1-6.2-4.1C329.1,146.3,303,167,293,188.3z
		 M908.6,247.5c-60.9,33.7-127,60.9-127,100.2c0,13.1,9.3,22.7,24.8,22.7C855.5,370.4,888.6,303.3,908.6,247.5z M1016.7,221
		c-20,2.4-34.8-0.3-34.8,6.5c0,3.8,3.4,7.2,11.7,7.2C1003.2,234.8,1011.8,229.3,1016.7,221z"/>
</g>
</svg>
